<?xml version="1.0" encoding="utf-8"?>
<!-- Generator: Adobe Illustrator 28.0.0, SVG Export Plug-In . SVG Version: 6.00 Build 0)  -->
<svg version="1.1" id="Слой_1" xmlns="http://www.w3.org/2000/svg" xmlns:xlink="http://www.w3.org/1999/xlink" x="0px" y="0px"
	 viewBox="0 0 86 29" style="enable-background:new 0 0 86 29;" xml:space="preserve">
<style type="text/css">
	.st0{fill:#25A56A;}
	.st1{fill:#25A56A;fill-opacity:0.25;}
	.st2{fill:#FFFFFF;}
</style>
<path class="st0" d="M1,19.8h2c0.6,0,1,0.4,1,1v2c0,0.6-0.4,1-1,1H1c-0.6,0-1-0.4-1-1v-2C0,20.2,0.4,19.8,1,19.8z"/>
<path class="st0" d="M6,19.8h2c0.6,0,1,0.4,1,1v2c0,0.6-0.4,1-1,1H6c-0.6,0-1-0.4-1-1v-2C5,20.2,5.4,19.8,6,19.8z"/>
<path class="st0" d="M11,19.8h2c0.6,0,1,0.4,1,1v2c0,0.6-0.4,1-1,1h-2c-0.6,0-1-0.4-1-1v-2C10,20.2,10.4,19.8,11,19.8z"/>
<path class="st0" d="M16,19.8h2c0.6,0,1,0.4,1,1v2c0,0.6-0.4,1-1,1h-2c-0.6,0-1-0.4-1-1v-2C15,20.2,15.4,19.8,16,19.8z"/>
<path class="st0" d="M6,14.8h2c0.6,0,1,0.4,1,1v2c0,0.6-0.4,1-1,1H6c-0.6,0-1-0.4-1-1v-2C5,15.2,5.4,14.8,6,14.8z"/>
<path class="st0" d="M11,14.8h2c0.6,0,1,0.4,1,1v2c0,0.6-0.4,1-1,1h-2c-0.6,0-1-0.4-1-1v-2C10,15.2,10.4,14.8,11,14.8z"/>
<path class="st0" d="M16,14.8h2c0.6,0,1,0.4,1,1v2c0,0.6-0.4,1-1,1h-2c-0.6,0-1-0.4-1-1v-2C15,15.2,15.4,14.8,16,14.8z"/>
<path class="st1" d="M1,9.8h2c0.6,0,1,0.4,1,1v2c0,0.6-0.4,1-1,1H1c-0.6,0-1-0.4-1-1v-2C0,10.2,0.4,9.8,1,9.8z"/>
<path class="st2" d="M36.9,9.9h-2.7L30.9,20h-0.1L27.4,9.9h-2.7L29.4,23h2.7L36.9,9.9z M44.4,23.3c3.7,0,6.1-2.7,6.1-6.8
	s-2.4-6.8-6.1-6.8c-3.7,0-6.1,2.7-6.1,6.8C38.2,20.6,40.7,23.3,44.4,23.3z M44.4,21.1c-2.4,0-3.5-2.1-3.5-4.6s1.1-4.6,3.5-4.6
	s3.5,2.1,3.5,4.6S46.8,21.1,44.4,21.1z M55.8,5.5h-2.5V23h2.5V5.5z M61.8,15.2c0-2.1,1.3-3.3,3.1-3.3c1.7,0,2.8,1.1,2.8,3v8h2.5
	v-8.3c0-3.2-1.8-4.9-4.5-4.9c-2,0-3.3,0.9-3.9,2.3h-0.2V9.9h-2.4V23h2.5L61.8,15.2L61.8,15.2z M77.4,23.3c2.2,0,3.4-1.1,3.9-2.1h0.1
	V23h2.5v-8.7c0-3.8-3-4.6-5.1-4.6c-2.4,0-4.6,1-5.4,3.3l2.4,0.5c0.4-0.9,1.3-1.8,3-1.8c1.6,0,2.5,0.9,2.5,2.3v0.1
	c0,0.9-1,0.9-3.3,1.2c-2.5,0.3-5,0.9-5,3.9C73,21.9,74.9,23.3,77.4,23.3z M78,21.2c-1.4,0-2.5-0.6-2.5-1.9c0-1.4,1.2-1.8,2.7-2
	c0.8-0.1,2.8-0.3,3.2-0.7v1.7C81.3,19.8,80.1,21.2,78,21.2z"/>
<path class="st1" d="M1,4.8h2c0.6,0,1,0.4,1,1v2c0,0.6-0.4,1-1,1H1c-0.6,0-1-0.4-1-1v-2C0,5.2,0.4,4.8,1,4.8z"/>
<path class="st1" d="M6,4.8h2c0.6,0,1,0.4,1,1v2c0,0.6-0.4,1-1,1H6c-0.6,0-1-0.4-1-1v-2C5,5.2,5.4,4.8,6,4.8z"/>
<path class="st0" d="M16,9.8h2c0.6,0,1,0.4,1,1v2c0,0.6-0.4,1-1,1h-2c-0.6,0-1-0.4-1-1v-2C15,10.2,15.4,9.8,16,9.8z"/>
<path class="st1" d="M1,14.6h2c0.6,0,1,0.4,1,1v2c0,0.6-0.4,1-1,1H1c-0.6,0-1-0.4-1-1v-2C0,15,0.4,14.6,1,14.6z"/>
<path class="st0" d="M11,9.8h2c0.6,0,1,0.4,1,1v2c0,0.6-0.4,1-1,1h-2c-0.6,0-1-0.4-1-1v-2C10,10.2,10.4,9.8,11,9.8z"/>
<path class="st0" d="M11,4.8h2c0.6,0,1,0.4,1,1v2c0,0.6-0.4,1-1,1h-2c-0.6,0-1-0.4-1-1v-2C10,5.2,10.4,4.8,11,4.8z"/>
<path class="st1" d="M16,4.8h2c0.6,0,1,0.4,1,1v2c0,0.6-0.4,1-1,1h-2c-0.6,0-1-0.4-1-1v-2C15,5.2,15.4,4.8,16,4.8z"/>
<path class="st1" d="M6,9.9h2c0.6,0,1,0.4,1,1v2c0,0.6-0.4,1-1,1H6c-0.6,0-1-0.4-1-1v-2C5,10.3,5.4,9.9,6,9.9z"/>
</svg>
